<svg width="50" height="50" viewBox="0 0 50 50" fill="none" xmlns="http://www.w3.org/2000/svg">
<path d="M7.43634 44.4829L3.52814 0.648926H46.4719L42.5594 44.4763L24.9738 49.3513L7.43634 44.4829Z" fill="#E44D26"/>
<path d="M25 45.6251L39.2102 41.6853L42.5535 4.23291H25V45.6251Z" fill="#F16529"/>
<path d="M25 20.4901H17.886L17.3946 14.9847H25V9.60889H11.5192L11.6481 11.0511L12.9692 25.8663H25V20.4901ZM25 34.4522L24.9762 34.4589L18.9891 32.8417L18.6067 28.5546H13.2094L13.9625 36.9956L24.9754 40.0526L25 40.046V34.4522Z" fill="#EBEBEB"/>
<path d="M24.9813 20.4901V25.8663H31.6012L30.9774 32.8386L24.9813 34.4569V40.0503L36.0027 36.9956L36.0836 36.0874L37.3469 21.9339L37.4777 20.4901H36.0293H24.9813ZM24.9813 9.60889V14.9847H37.9672L38.075 13.7769L38.3203 11.0511L38.4488 9.60889H24.9813Z" fill="white"/>
</svg>
