<svg width="50" height="50" viewBox="0 0 50 50" fill="none" xmlns="http://www.w3.org/2000/svg">
<path d="M36.6441 35.9813C36.9508 33.4294 36.859 33.0548 38.7598 33.4684L39.2422 33.5106C40.7039 33.577 42.616 33.2755 43.7394 32.7536C46.1578 31.6313 47.5914 29.7583 45.2074 30.2501C39.7684 31.3723 39.3945 29.5305 39.3945 29.5305C45.1379 21.0091 47.5387 10.1915 45.466 7.54343C39.8137 0.321168 30.0297 3.7364 29.866 3.82468L29.8137 3.83445C28.7391 3.6114 27.5363 3.4782 26.1851 3.45632C23.7238 3.4157 21.8562 4.10164 20.4394 5.17586C20.4394 5.17586 2.98515 -2.01516 3.79726 14.2192C3.96992 17.6727 8.74726 40.3512 14.4457 33.5012C16.5285 30.9966 18.541 28.8786 18.541 28.8786C19.5402 29.5423 20.7371 29.8813 21.9918 29.7594L22.0891 29.6766C22.0586 29.9876 22.0719 30.2919 22.1277 30.652C20.6602 32.2923 21.0914 32.5802 18.1566 33.1841C15.1871 33.7958 16.9316 34.8852 18.0703 35.17C19.4512 35.5153 22.6453 36.0044 24.8039 32.9833L24.718 33.3278C25.2937 33.7887 25.2551 36.6391 25.3363 38.6755C25.418 40.7122 25.5543 42.6126 25.9695 43.7333C26.3848 44.8536 26.8746 47.7395 30.7316 46.913C33.9551 46.2239 36.4195 45.2298 36.6441 35.9813Z" fill="black"/>
<path d="M29.4758 48.9279C27.7699 48.9279 26.659 48.2681 25.9844 47.631C24.966 46.6701 24.5621 45.4322 24.3207 44.6927L24.2164 44.3842C23.7305 43.0724 23.5656 41.1838 23.468 38.7517C23.4531 38.3865 23.443 38.0103 23.4316 37.6115C23.4234 37.3197 23.4133 36.9537 23.3984 36.5709C22.7918 36.8607 22.1434 37.067 21.4602 37.1834C20.2574 37.3888 18.9645 37.3224 17.6164 36.9853C16.6652 36.7474 15.677 36.2545 15.1137 35.4931C13.4719 36.931 11.9059 36.7361 11.0527 36.4513C9.54766 35.9494 8.20078 34.5388 6.93476 32.14C6.03281 30.431 5.16055 28.2045 4.3418 25.5217C2.91601 20.8498 2.01015 15.9291 1.92969 14.3134C1.67656 9.25681 3.03789 5.6404 5.975 3.56579C10.6082 0.293133 17.6281 2.21774 20.1875 3.09157C21.907 2.05524 23.9301 1.55095 26.216 1.58727C27.4438 1.6072 28.6129 1.71501 29.6988 1.90876C30.8316 1.55251 33.0691 1.04118 35.6305 1.07321C40.3496 1.12946 44.2602 2.96853 46.9387 6.39157C48.8504 8.83376 47.9051 13.9623 47.1719 16.8021C46.1398 20.7967 44.3316 25.0451 42.1106 28.7435C42.7137 28.7478 43.5875 28.6756 44.8297 28.4189C47.2805 27.9131 47.9973 29.2271 48.1918 29.8154C48.9711 32.1756 45.5836 33.9592 44.527 34.4498C43.1731 35.0783 40.9656 35.4611 39.1578 35.3783L39.0789 35.3732L38.6039 35.3314L38.557 35.7275L38.5117 36.1146C38.3902 40.8017 37.7207 43.7701 36.343 45.7314C34.8988 47.7877 32.8918 48.3638 31.1238 48.7427C30.5207 48.8717 29.9727 48.9279 29.4758 48.9279V48.9279ZM25.8859 31.8689C26.9871 32.7502 27.0836 34.4084 27.1699 37.5072C27.1809 37.8939 27.191 38.2599 27.2047 38.6017C27.2461 39.6369 27.3434 42.0607 27.723 43.0849C27.7766 43.2299 27.8246 43.3767 27.8754 43.5326C28.2984 44.8279 28.5105 45.4775 30.3398 45.0865C31.8754 44.7572 32.6648 44.4619 33.2828 43.5822C34.1809 42.3033 34.6832 39.7306 34.7754 35.9357L36.6438 35.981L34.7883 35.7584L34.843 35.2951C35.0207 33.7677 35.1488 32.6646 36.1695 31.9349C36.9887 31.3498 37.9219 31.4064 38.6652 31.5404C37.8484 30.9232 37.6227 30.1994 37.5625 29.9025L37.4066 29.1349L37.8445 28.4853C40.3668 24.7431 42.4465 20.1439 43.5512 15.8666C44.6863 11.4716 44.3402 9.13767 43.9941 8.69626C39.4125 2.84196 31.4676 5.25915 30.6379 5.53337L30.4977 5.60915L29.7945 5.74001L29.4344 5.6654C28.4414 5.45915 27.3383 5.34509 26.1559 5.32595C24.298 5.2947 22.7992 5.73376 21.5703 6.66618L20.7176 7.31267L19.7281 6.90524C17.6141 6.04079 11.4047 4.3029 8.12812 6.6236C6.30937 7.91188 5.48086 10.4361 5.66523 14.1263C5.72617 15.3447 6.55391 19.9568 7.91953 24.4299C9.80664 30.6115 11.5215 32.665 12.2375 32.9037C12.3625 32.9459 12.6867 32.6939 13.0094 32.3064C15.107 29.7834 17.1027 27.6799 17.1867 27.5916L18.2688 26.4529L19.577 27.322C20.1043 27.6724 20.6859 27.8713 21.2832 27.9088L24.4031 25.2478L23.9512 29.8603C23.941 29.9638 23.9359 30.1049 23.9766 30.3666L24.1125 31.2408L23.5227 31.9002L23.4547 31.9767L25.1688 32.7677L25.8859 31.8689V31.8689Z" fill="black"/>
<path d="M45.2074 30.2502C39.768 31.3724 39.3941 29.5306 39.3941 29.5306C45.1375 21.0088 47.5383 10.1908 45.4664 7.54353C39.814 0.32165 30.0293 3.73688 29.866 3.82556L29.8133 3.83493C28.7387 3.61188 27.5359 3.47907 26.184 3.4572C23.7226 3.41696 21.8558 4.10251 20.439 5.17673C20.439 5.17673 2.98436 -2.0139 3.79607 14.2201C3.96873 17.674 8.74607 40.3525 14.4445 33.5025C16.5273 30.9978 18.5394 28.8799 18.5394 28.8799C19.539 29.5435 20.7355 29.8826 21.9898 29.7607L22.0875 29.6779C22.057 29.9888 22.0711 30.2931 22.1265 30.6533C20.6586 32.2935 21.0898 32.5814 18.1551 33.1853C15.1855 33.797 16.9301 34.8865 18.0691 35.1713C19.4496 35.5166 22.6441 36.0056 24.8023 32.9845L24.716 33.3291C25.2914 33.79 25.6953 36.3259 25.6277 38.6248C25.5597 40.9236 25.5144 42.5021 25.968 43.7349C26.4211 44.9677 26.8726 47.7412 30.7305 46.9146C33.9539 46.224 35.6242 44.4338 35.857 41.4478C36.0219 39.3248 36.3949 39.6388 36.4187 37.7408L36.7183 36.8424C37.0637 33.9646 36.773 33.0365 38.7594 33.4681L39.2418 33.5103C40.7035 33.5767 42.6164 33.2752 43.7394 32.7533C46.1574 31.6318 47.5914 29.7584 45.2074 30.2502V30.2502Z" fill="#336791"/>
<path d="M29.6707 47.7759C26.455 47.7759 25.4363 45.2295 25.0195 44.1881C24.4093 42.6619 24.2777 36.7392 24.4136 31.8822C24.423 31.5381 24.7082 31.2662 25.0543 31.2767C25.3984 31.2861 25.6695 31.5728 25.6597 31.917C25.5031 37.5189 25.7254 42.5955 26.1769 43.7252C26.8816 45.4865 27.9504 47.0271 30.9718 46.3799C33.8402 45.7646 34.9144 44.6771 35.3929 41.9033C35.7601 39.7748 36.4863 33.7193 36.5758 32.5244C36.6015 32.1814 36.8992 31.9232 37.2437 31.9494C37.5867 31.9752 37.8441 32.2744 37.8187 32.6174C37.7254 33.8615 37.0027 39.9052 36.6215 42.1154C36.0566 45.3916 34.5961 46.8775 31.2332 47.5986C30.6617 47.7209 30.1425 47.7756 29.6707 47.7759V47.7759ZM12.2347 35.3381C11.9281 35.3381 11.6496 35.2814 11.4082 35.2013C9.3195 34.5045 7.33005 31.1029 5.49489 25.09C4.09802 20.5131 3.21286 15.7357 3.13513 14.183C2.90505 9.57985 4.0902 6.32321 6.65856 4.50407C11.7394 0.904068 20.2867 4.33219 20.648 4.47985C20.9664 4.60993 21.1195 4.97399 20.989 5.29274C20.859 5.6111 20.4949 5.76383 20.1765 5.63415C20.0941 5.60055 11.898 2.31696 7.37653 5.52282C5.18044 7.07985 4.17224 9.97282 4.37966 14.1209C4.44489 15.4291 5.27184 20.0916 6.68669 24.7259C8.32497 30.0939 10.1894 33.481 11.8023 34.0189C12.0554 34.1033 12.8258 34.3599 13.9269 33.0357C15.9992 30.5427 17.9027 28.5529 17.9218 28.5334C18.1601 28.2849 18.5547 28.2767 18.8031 28.515C19.0515 28.7533 19.0601 29.1478 18.8218 29.3959C18.8031 29.4154 16.9285 31.3752 14.8855 33.833C13.9179 34.9966 12.9906 35.3381 12.2347 35.3381V35.3381ZM39.3554 30.0861C39.2355 30.0861 39.1144 30.0517 39.0074 29.9799C38.7222 29.7873 38.6465 29.4002 38.839 29.1146C44.6449 20.4994 46.6828 10.0896 44.9375 7.85915C42.7406 5.05211 39.6386 3.5861 35.7172 3.50133C32.8136 3.43883 30.5058 4.18024 30.1285 4.30954L30.0336 4.34821C29.6543 4.46735 29.3633 4.25954 29.2535 4.01657C29.1234 3.72907 29.23 3.38922 29.5 3.22555C29.5179 3.21501 29.575 3.19079 29.6675 3.1568L29.6593 3.15915L29.6675 3.15641C30.3086 2.92165 32.6515 2.21891 35.5535 2.25211C39.8925 2.29821 43.4769 3.97125 45.9183 7.09118C47.0734 8.56735 47.0761 11.9681 45.9258 16.422C44.7531 20.9631 42.5465 25.8431 39.8722 29.8115C39.7527 29.99 39.5558 30.0861 39.3554 30.0861V30.0861ZM39.6523 34.0744C38.6609 34.0744 37.7722 33.9345 37.2402 33.6158C36.6933 33.2881 36.589 32.8427 36.5754 32.6064C36.4261 29.9853 37.8722 29.5291 38.6097 29.3209C38.507 29.1654 38.3609 28.9826 38.2097 28.7939C37.7797 28.2564 37.1906 27.5205 36.7367 26.4197C36.6656 26.2478 36.4429 25.8482 36.1851 25.3853C34.7871 22.8783 31.8781 17.6615 33.7468 14.99C34.6117 13.7537 36.334 13.267 38.8715 13.5384C38.125 11.2642 34.5703 4.15016 26.1355 4.01188C23.5988 3.96969 21.5183 4.74977 19.955 6.32829C16.455 9.86305 16.5816 16.2588 16.5836 16.3228C16.5925 16.667 16.3211 16.9533 15.9769 16.9623C15.6328 16.9732 15.3468 16.6998 15.3375 16.3556C15.3297 16.0716 15.1992 9.35993 19.0695 5.45094C20.8808 3.62165 23.2652 2.71852 26.1562 2.76579C31.5523 2.85446 35.0258 5.59782 36.989 7.88336C39.1293 10.3744 40.1785 13.122 40.2648 14.0392C40.3293 14.7213 39.8398 14.8576 39.741 14.8779L39.516 14.883C37.0258 14.4841 35.4281 14.7611 34.7675 15.7049C33.3461 17.7365 36.098 22.6713 37.273 24.7787C37.573 25.3162 37.7894 25.7048 37.8886 25.9447C38.2746 26.8806 38.7781 27.5095 39.1824 28.015C39.5383 28.4595 39.8465 28.8451 39.9566 29.2974C40.0078 29.3873 40.734 30.4615 45.0429 29.572C46.123 29.3494 46.7707 29.5396 46.9687 30.1384C47.3582 31.3162 45.173 32.69 43.9633 33.2517C42.8793 33.7556 41.1492 34.0744 39.6523 34.0744V34.0744ZM37.8179 32.5037C37.9547 32.6416 38.6386 32.8795 40.055 32.8185C41.3144 32.7646 42.6425 32.4908 43.4394 32.1209C44.4586 31.6474 45.139 31.1181 45.4914 30.7568L45.2961 30.7927C42.541 31.3615 40.5922 31.2857 39.5039 30.5674C39.4261 30.5162 39.3562 30.4631 39.2929 30.4107C39.175 30.4572 39.066 30.4877 38.9883 30.5095C38.3711 30.6826 37.7328 30.8619 37.8179 32.5037ZM20.0203 35.9861C19.3359 35.9861 18.6156 35.8927 17.88 35.7088C17.1179 35.5181 15.8332 34.9443 15.8527 34.0017C15.875 32.9443 17.4129 32.6271 17.9918 32.508C20.0832 32.0771 20.2195 31.9045 20.873 31.0744C21.0636 30.8326 21.3008 30.5314 21.6242 30.1705C22.1043 29.633 22.6289 29.3607 23.1836 29.3607C23.5699 29.3607 23.8867 29.4916 24.0961 29.5787C24.7633 29.8552 25.3199 30.524 25.5488 31.3236C25.7554 32.0451 25.6566 32.7396 25.2715 33.2791C24.007 35.0498 22.191 35.9861 20.0203 35.9861V35.9861ZM17.1992 34.0552C17.3871 34.2006 17.7636 34.3947 18.1828 34.4994C18.8199 34.6588 19.4379 34.7396 20.0207 34.7396C21.7965 34.7396 23.2222 34.0045 24.2578 32.5545C24.4738 32.2521 24.409 31.8681 24.3511 31.6662C24.23 31.2431 23.9293 30.8584 23.6195 30.7299C23.4515 30.6603 23.3121 30.6072 23.184 30.6072C23.1152 30.6072 22.9058 30.6072 22.5535 31.0013C22.2558 31.3338 22.0414 31.606 21.8527 31.8459C21.0386 32.8795 20.6656 33.2302 18.2437 33.7291C17.6527 33.8502 17.3496 33.9736 17.1992 34.0552V34.0552ZM21.9918 31.1802C21.6894 31.1802 21.4238 30.9595 21.3765 30.6513C21.3609 30.5478 21.3508 30.4439 21.3453 30.3392C19.7578 30.3095 18.2261 29.6283 17.0633 28.415C15.5929 26.881 14.9238 24.7556 15.2277 22.5841C15.5578 20.2259 15.4343 18.1443 15.3679 17.0259C15.3496 16.715 15.3363 16.4904 15.3371 16.3349C15.3383 16.1377 15.3422 15.6146 17.0906 14.7283C17.7125 14.4131 18.9593 13.8631 20.3215 13.722C22.5781 13.4888 24.0656 14.4939 24.5109 16.5525C25.7129 22.1103 24.6062 24.5685 23.798 26.3638C23.6476 26.6982 23.5054 27.0138 23.3918 27.3197L23.2914 27.5892C22.8644 28.7341 22.4953 29.7232 22.6086 30.4619C22.6609 30.8021 22.4273 31.1201 22.0871 31.1724L21.9918 31.1802V31.1802ZM16.5875 16.5076L16.6117 16.9525C16.6804 18.1142 16.8086 20.2759 16.4617 22.7572C16.2113 24.5482 16.7582 26.2963 17.9629 27.5525C18.9148 28.5455 20.1675 29.0935 21.455 29.0935H21.4816C21.6258 28.4861 21.8652 27.8447 22.123 27.1537L22.2226 26.8857C22.3511 26.5404 22.5015 26.206 22.6609 25.8521C23.4386 24.124 24.407 21.9728 23.2918 16.8162C23.0711 15.7947 22.5355 15.2037 21.6554 15.0088C19.8476 14.6095 17.1535 15.9693 16.5875 16.5076V16.5076ZM20.3492 16.2431C20.3179 16.4634 20.7527 17.0517 21.3199 17.1302C21.8859 17.2095 22.3703 16.7494 22.4011 16.5291C22.432 16.3088 21.9976 16.0658 21.4304 15.9869C20.8636 15.908 20.3793 16.0228 20.3492 16.2431ZM21.45 17.347L21.291 17.3361C20.9394 17.2873 20.584 17.0658 20.3406 16.7431C20.255 16.6298 20.1156 16.4103 20.1433 16.2142C20.1828 15.9267 20.5336 15.7545 21.0808 15.7545C21.2031 15.7545 21.3304 15.7634 21.4586 15.7814C21.7578 15.8228 22.0355 15.9091 22.2406 16.0236C22.5961 16.222 22.6222 16.4435 22.6062 16.558C22.5625 16.8756 22.0574 17.347 21.45 17.347V17.347ZM20.5558 16.2798C20.5734 16.4158 20.9101 16.8642 21.3484 16.9248L21.4504 16.9318C21.855 16.9318 22.1574 16.6134 22.1929 16.5091C22.1554 16.4381 21.8953 16.2615 21.4019 16.1927C21.2925 16.1771 21.1847 16.1697 21.0812 16.1697C20.764 16.1697 20.5957 16.2412 20.5558 16.2798V16.2798ZM37.589 15.7935C37.6199 16.0138 37.1855 16.6021 36.6187 16.681C36.0523 16.7599 35.5675 16.3002 35.5363 16.0798C35.5066 15.8595 35.941 15.6162 36.5074 15.5377C37.0738 15.4584 37.5578 15.5736 37.589 15.7935V15.7935ZM36.4879 16.7935C35.9425 16.7935 35.4718 16.3693 35.4332 16.0939C35.3883 15.7634 35.9324 15.5123 36.4925 15.4345C36.616 15.4173 36.7383 15.4088 36.8558 15.4088C37.3394 15.4088 37.6597 15.5506 37.6918 15.7795C37.7125 15.9275 37.5988 16.156 37.4031 16.3623C37.2738 16.4978 37.0023 16.7326 36.6324 16.7838L36.4879 16.7935V16.7935ZM36.8562 15.6166C36.7484 15.6166 36.6359 15.6248 36.5218 15.6404C35.959 15.7189 35.623 15.9447 35.6394 16.0658C35.6582 16.199 36.0175 16.5861 36.4883 16.5861L36.6043 16.5779C36.9117 16.5353 37.1425 16.3345 37.2527 16.2189C37.4257 16.0373 37.4945 15.8662 37.4863 15.808C37.4754 15.7306 37.2675 15.6166 36.8562 15.6166ZM38.405 28.4459C38.2859 28.4459 38.1656 28.4115 38.059 28.3404C37.773 28.149 37.6961 27.7619 37.8879 27.4759C39.2152 25.4935 38.9722 23.472 38.7375 21.517C38.6371 20.6841 38.534 19.8228 38.5605 18.9963C38.5879 18.1459 38.6961 17.4443 38.8004 16.7658C38.9242 15.9619 39.0414 15.2025 38.9929 14.3009C38.9742 13.9572 39.2379 13.6638 39.5816 13.6451C39.9265 13.6267 40.2191 13.89 40.2375 14.2338C40.2929 15.2642 40.1605 16.1236 40.0324 16.9552C39.9336 17.597 39.8312 18.2607 39.8066 19.0361C39.7828 19.7681 39.8761 20.5455 39.975 21.3681C40.225 23.447 40.5082 25.8033 38.9238 28.1693C38.8035 28.3486 38.6062 28.4459 38.405 28.4459V28.4459Z" fill="white"/>
</svg>
