<svg width="50" height="50" viewBox="0 0 50 50" fill="none" xmlns="http://www.w3.org/2000/svg">
<path d="M47.5781 36.3673C44.9609 37.7345 31.4062 43.2813 28.5156 44.8048C25.625 46.3282 24.0234 46.2892 21.7578 45.1954C19.4922 44.1017 5.07812 38.3204 2.46094 37.0704C1.17188 36.4454 0.507812 35.9376 0.507812 35.4298V30.4688C0.507812 30.4688 19.2578 26.3673 22.3047 25.3126C25.3516 24.2188 26.3672 24.1798 28.9453 25.1173C31.5234 26.0548 46.9531 28.8282 49.4922 29.7657V34.6485C49.4922 35.1563 48.9063 35.7032 47.5781 36.3673V36.3673Z" fill="#A41E11"/>
<path d="M47.5781 31.4454C44.9609 32.8126 31.4062 38.3595 28.5156 39.8829C25.625 41.4063 24.0234 41.3673 21.7578 40.2735C19.4922 39.1798 5.07809 33.3595 2.4609 32.1095C-0.117221 30.8595 -0.195346 30.0001 2.34372 29.0235C4.88278 28.0079 19.2187 22.3829 22.2656 21.3282C25.3125 20.2345 26.3281 20.1954 28.9062 21.1329C31.4843 22.0704 44.9609 27.422 47.5 28.3595C50.1171 29.297 50.1953 30.0782 47.5781 31.4454Z" fill="#D82C20"/>
<path d="M47.5781 28.3204C44.9609 29.6876 31.4062 35.2345 28.5156 36.7579C25.625 38.2423 24.0234 38.2423 21.7578 37.1485C19.4922 36.0548 5.07812 30.2345 2.46094 28.9845C1.17188 28.3595 0.507812 27.8517 0.507812 27.3438V22.3829C0.507812 22.3829 19.2578 18.2813 22.3047 17.2267C25.3516 16.1329 26.3672 16.0938 28.9453 17.0313C31.5234 17.9688 46.9531 20.7423 49.4922 21.6798V26.5626C49.4922 27.0704 48.9063 27.6173 47.5781 28.3204V28.3204Z" fill="#A41E11"/>
<path d="M47.5781 23.3595C44.9609 24.7267 31.4062 30.2735 28.5156 31.797C25.625 33.2813 24.0234 33.2813 21.7578 32.1876C19.4921 31.0938 5.07808 25.2735 2.46089 24.0235C-0.156294 22.7735 -0.195357 21.9142 2.34371 20.9376C4.88277 19.922 19.2187 14.297 22.2656 13.2423C25.3125 12.1485 26.3281 12.1095 28.9062 13.047C31.4843 13.9845 44.9609 19.336 47.5 20.2735C50.1171 21.211 50.1953 21.9923 47.5781 23.3595V23.3595Z" fill="#D82C20"/>
<path d="M47.5781 19.922C44.9609 21.2892 31.4063 26.836 28.5156 28.3595C25.625 29.8438 24.0234 29.8438 21.7578 28.7501C19.4922 27.6954 5.07813 21.8751 2.46094 20.6251C1.17188 20.0001 0.46875 19.4923 0.46875 18.9845V14.0235C0.46875 14.0235 19.2188 9.92197 22.2656 8.86728C25.3125 7.77353 26.3281 7.73447 28.9063 8.67197C31.4844 9.60947 46.9141 12.3829 49.4531 13.3204V18.2032C49.4922 18.711 48.9063 19.2188 47.5781 19.922Z" fill="#A41E11"/>
<path d="M47.5781 14.961C44.9609 16.3282 31.4062 21.8751 28.5156 23.3985C25.625 24.8829 24.0234 24.8829 21.7578 23.7892C19.4921 22.6954 5.07808 16.9142 2.46089 15.6642C-0.156294 14.4142 -0.195357 13.5548 2.34371 12.5782C4.88277 11.5626 19.2187 5.9376 22.2656 4.88291C25.3125 3.78916 26.3281 3.7501 28.9062 4.6876C31.4843 5.6251 44.9609 10.9767 47.5 11.9142C50.1171 12.8517 50.1953 13.6329 47.5781 14.961V14.961Z" fill="#D82C20"/>
<path d="M31.4063 10.1953L27.1875 10.6641L26.2109 12.9297L24.6875 10.3906L19.8047 9.96094L23.4375 8.63281L22.3438 6.60156L25.7812 7.92969L28.9844 6.875L28.125 8.98437L31.4063 10.1953ZM25.9766 21.2891L18.0469 18.0078L29.4141 16.2891L25.9766 21.2891Z" fill="white"/>
<path d="M15 16.1719C18.3439 16.1719 21.0547 15.1225 21.0547 13.8281C21.0547 12.5337 18.3439 11.4844 15 11.4844C11.6561 11.4844 8.94531 12.5337 8.94531 13.8281C8.94531 15.1225 11.6561 16.1719 15 16.1719Z" fill="white"/>
<path d="M36.4453 10.8203L43.1641 13.4766L36.4453 16.1328V10.8203Z" fill="#7A0C00"/>
<path d="M29.0234 13.7891L36.4453 10.8203V16.1328L35.7031 16.4453L29.0234 13.7891Z" fill="#AD2115"/>
</svg>
