<svg width="50" height="50" viewBox="0 0 50 50" fill="none" xmlns="http://www.w3.org/2000/svg">
<path fill-rule="evenodd" clip-rule="evenodd" d="M25 9.76562C18.3333 9.76562 14.1667 13.1076 12.5 19.7917C15 16.4497 17.9167 15.1964 21.25 16.0319C23.1519 16.5081 24.5111 17.8923 26.0157 19.4231C28.4667 21.9176 31.3037 24.8047 37.5 24.8047C44.1667 24.8047 48.3333 21.4627 50 14.7786C47.5 18.1207 44.5833 19.3739 41.25 18.5384C39.3481 18.0622 37.9889 16.678 36.4843 15.1472C34.0333 12.6528 31.1963 9.76562 25 9.76562ZM12.5 24.8047C5.83333 24.8047 1.66667 28.1467 0 34.8307C2.5 31.4887 5.41667 30.2355 8.75 31.071C10.6519 31.5481 12.0111 32.9314 13.5157 34.4622C15.9667 36.9566 18.8037 39.8438 25 39.8438C31.6667 39.8438 35.8333 36.5017 37.5 29.8177C35 33.1597 32.0833 34.413 28.75 33.5775C26.8481 33.1012 25.4889 31.7171 23.9843 30.1863C21.5333 27.6918 18.6963 24.8047 12.5 24.8047Z" fill="#14B4C6"/>
</svg>
